
Genre:Biography | Drama | History
Language:English  http://www.imdb.com/title/tt0496634/
Source:1080p.BluRay.x264.CiNEFiLE


File size : 2.27 GiB
Duration : 1h 39mn
Overall bit rate : 3 258 Kbps


Video
Format : AVC
Format/Info : Advanced Video Codec
Format profile : High@L3.1
Format settings, CABAC : Yes
Format settings, ReFrames : 4 frames
Format settings, GOP : M=1, N=2
Codec ID : H264
Duration : 1h 39mn
Bit rate : 2 899 Kbps
Width : 1 280 pixels
Height : 536 pixels
Display aspect ratio : 2.35:1
Frame rate mode : Variable
Frame rate : 24.000 fps
Color space : YUV
Chroma subsampling : 4:2:0
Bit depth : 8 bits
Scan type : Progressive
Bits/(Pixel*Frame) : 0.176
Stream size : 1.99 GiB (88%)
Writing library : x264

Audio
ID : 1
Format : AC-3
Format/Info : Audio Coding 3
Mode extension : CM (complete main)
Codec ID : 2000
Duration : 1h 39mn
Bit rate mode : Constant
Bit rate : 384 Kbps
Channel(s) : 6 channels
Channel positions : Front: L C R, Side: L R, LFE
Sampling rate : 48.0 KHz
Bit depth : 16 bits
Stream size : 274 MiB (12%)
Alignment : Aligned on interleaves
Interleave, duration : 32 ms (0.77 video frame)


Plot:
A 17th century Hungarian countess embarks on a murderous undertaking, with the belief that bathing in the blood of virgins will preserve her beauty.
 
http://www.rapidhdd.com/images/647556vlcsnap-2010-12-12-08h55m45s124.png 
http://www.rapidhdd.com/images/459808vlcsnap-2010-12-12-08h56m11s135.png 
http://www.rapidhdd.com/images/381165vlcsnap-2010-12-12-08h56m22s244.png 
http://www.rapidhdd.com/images/580550vlcsnap-2010-12-12-08h56m39s156.png